			<svg xmlns="http://www.w3.org/2000/svg" id="annonce_svg_icon" viewBox="0 0 350 350"><title>annoncering</title><g id="Layer_2" data-name="Layer 2"><g id="Lag_1" data-name="Lag 1"><path class="moving_parts" id="annonce_circle_big" d="M175,0C78.5,0,0,78.5,0,175A174.92,174.92,0,0,0,282.08,313.33l-4.41-3.61L271.94,305l-1.79-1.48A159.94,159.94,0,0,1,15,175C15,86.78,86.78,15,175,15S335,86.78,335,175a159,159,0,0,1-14.95,67.51c4.05,3.2,8.08,6.4,12.05,9.56A173.93,173.93,0,0,0,350,175C350,78.5,271.5,0,175,0Z"/><path class="moving_parts" id="annonce_circle_medium" d="M175,286.47A111.45,111.45,0,1,1,286.45,175a7.5,7.5,0,1,1-15,0A96.45,96.45,0,1,0,175,271.47a7.5,7.5,0,0,1,0,15Z"/><path class="moving_parts" id="annonce_circle_small" d="M175,238.49A63.47,63.47,0,1,1,238.47,175a7.5,7.5,0,0,1-15,0A48.47,48.47,0,1,0,175,223.49a7.5,7.5,0,0,1,0,15Z"/><path d="M313.38,283.52a24.31,24.31,0,0,1-3.86,4.9,5.25,5.25,0,0,1-3.74,1.61,8.33,8.33,0,0,1-5-2.11c-2.26-1.8-4.49-3.61-6.73-5.43-3.41-2.77-6.8-5.56-10.21-8.34l-1.58-1.29c-1.94-1.59-3.85-3.23-5.82-4.78-5.5-4.31-9.78-3.09-12.46,3.47-.28.69-.57,1.38-.86,2.07-1.79,4.35-3.61,8.7-5.4,13.05-.75,1.82-1.5,3.64-2.23,5.48-1.14,2.83-2.74,4.94-6.08,5s-5-2.07-6.29-4.77q-8.3-17.48-16.62-34.92-3.13-6.62-6.28-13.2-3.24-6.83-6.48-13.63-6.24-13.17-12.51-26.36a12.81,12.81,0,0,1-1.33-4.76c-.12-2.85,1.58-4.47,4.9-4.73.42.07,1.35.17,2.26.38l.58.13,46.92,11.06L269.64,210l14.2,3.35,18.43,4.35a17.63,17.63,0,0,1,4.7,1.66c3.91,2.24,4.11,5.86.43,8.39-2.34,1.61-4.67,3.25-7,4.87-3.77,2.6-7.57,5.17-11.48,7.54L287,241.27c-6.54,3.83-5.39,9.74-1.18,13.37l.44.36c2.69,2.08,5.35,4.19,8,6.3q5.18,4.08,10.31,8.19l5.32,4.22a21.47,21.47,0,0,1,2.58,2.28A6,6,0,0,1,313.38,283.52Z"/></g></g></svg>
