
<svg xmlns="http://www.w3.org/2000/svg" viewBox="0 0 350 350"><title>Banner</title><g id="Layer_2" data-name="Layer 2"><g id="Lag_1" data-name="Lag 1"><path d="M323.34,267.76A174,174,0,0,0,350,175C350,78.51,271.49,0,175,0S0,78.51,0,175A175,175,0,0,0,245.3,335.25H191.16c-2.24,0-4.19-.24-6.62-.26-3.2.07-6.34,0-9.54,0a158.73,158.73,0,0,1-65.45-13.95A160.25,160.25,0,0,1,15,175C15,86.78,86.77,15,175,15S335,86.78,335,175a159.14,159.14,0,0,1-11.66,60Z"/><path d="M279.84,170.65c-.31-20.62-.13-41.23-.13-61.85,0-13.66-3.48-18.79-16-23.55H85.27c-8.3,2.33-13.78,7.47-15.93,15.93V240.34C73.82,251.5,82.19,255.53,94,255.12c15.91-.54,31.86-.15,47.79-.09,1.23,0,2.79-.77,3.84.94-3.89,6.1-7.7,12.25-11.72,18.24-1.81,2.7-2.87,5.5-1.47,8.42,1.49,3.09,4.6,3.47,7.77,3.46l12.17,0H167.7q10.68,0,21.36.15c4,.05,4.49-1.48,4.46-4.91-.15-17.16-.25-34.34,0-51.5.08-4.67-1.08-5.88-5.8-5.85q-15.86.12-31.71.13H140.88q-24.61,0-49.24,0C82.05,224,79,220.84,79,211.29q0-52.57,0-105.16c0-7.9,3.35-11.26,11.28-11.26q84.2,0,168.36,0c8.17,0,11.43,3.35,11.44,11.69,0,21.36.1,42.73-.07,64.08,0,.24,0,.47,0,.71,0,3.67.82,4.92,4.6,4.67,3.23-.21,5.35.09,5.29-4.55C279.85,171.2,279.84,170.92,279.84,170.65ZM174.75,233.23a6.94,6.94,0,1,1-6.95,6.94A6.93,6.93,0,0,1,174.75,233.23Z"/><path d="M306.26,194.73c-.12-.28-.26-.55-.4-.82a12.09,12.09,0,0,0-1.44-2.22l-.21-.24-.21-.24c-.14-.16-.28-.31-.43-.46-4.34-4.42-10.76-5.09-18.63-5.1H271c-15.41,0-30.77,0-45.94.15-14.47.1-21.92,7.39-21.93,21.72q0,46.63,0,93.29c0,10.28,1.9,15.63,8.17,19.69a24.38,24.38,0,0,0,13.26,3.76h63.67a20.16,20.16,0,0,0,14.59-6l.15-.16a20.24,20.24,0,0,0,5.38-13.92V205.69A27.72,27.72,0,0,0,306.26,194.73ZM260.41,316.3a4.77,4.77,0,0,1-4.17,3.72h-.16l-.16,0h-.29a4.76,4.76,0,0,1-4.53-3.72,5,5,0,0,1-.11-1,4.76,4.76,0,0,1,4.71-4.77h.06a4.76,4.76,0,0,1,4.65,3.73,4.42,4.42,0,0,1,.12,1A4.91,4.91,0,0,1,260.41,316.3Zm38.38-18c0,2.51-.49,4.22-1.59,5.3a1.64,1.64,0,0,1-.24.21c-1.1.93-2.74,1.32-5,1.32h-.13q-9.19-.06-18.39-.08t-18.34,0q-17.72,0-35.43.11h-.12a12.59,12.59,0,0,1-2.42-.2,7.41,7.41,0,0,1-1.3-.36,4.33,4.33,0,0,1-1.5-.94c-1.14-1.08-1.63-2.8-1.6-5.34.17-16.09.06-32.18.06-48.28q0-23.86,0-47.74c0-5.75,1.39-7.22,7.14-7.23q17.9,0,35.81,0t35.8,0c5.74,0,7.16,1.5,7.16,7.24,0,26,0,52,0,78Q298.76,289.32,298.79,298.31Z"/><path class="moving_parts" id="icon_banner_top" d="M174.22,137.67c-24.6,0-49.21-.07-73.81.08-3.6,0-5-.73-4.75-4.58a162.45,162.45,0,0,0,0-19.11c-.28-4.22,1.29-4.85,5.06-4.83,34.69.14,69.38.08,104.07.08,14.7,0,29.39.09,44.08-.07,3.33,0,4.65.67,4.48,4.31-.31,6.53-.33,13.11,0,19.64.2,3.88-1.2,4.58-4.77,4.56C223.78,137.6,199,137.67,174.22,137.67Z"/><path class="moving_parts" id="icon_banner_middle" d="M131.46,147.64c10.6,0,21.19.09,31.79-.06,2.9,0,4.05.71,4,3.81-.2,6.88-.13,13.77,0,20.66,0,2.49-.34,3.85-3.39,3.83q-32.31-.16-64.62,0c-2.44,0-3.47-.63-3.42-3.26.14-7.23.18-14.48,0-21.71-.08-3.18,1.56-3.29,3.94-3.28C110.27,147.68,120.87,147.64,131.46,147.64Z"/><path class="moving_parts" id="icon_banner_bottom" d="M253.3,172.43c.08,2.84-.89,3.57-3.61,3.54-10.8-.14-21.59-.06-32.39-.06l-12.88,0c-6.15,0-12.29,0-18.44.08-3,.05-4.43-.45-4.28-4,.3-6.89.17-13.8.05-20.7,0-2.48.24-3.83,3.33-3.81q32.38.18,64.77,0c3,0,3.49,1.11,3.44,3.7-.13,6.49-.17,13,0,19.47Q253.27,171.55,253.3,172.43Z"/><path class="moving_parts" id="icon_banner_top_mobile" d="M289.61,225.51c.11,2.85-.91,3.58-3.63,3.53-9.89-.13-19.78,0-29.68,0-9.71,0-19.43-.16-29.14.09-3.59.08-4.52-1.16-4.35-4.52.24-5.12.19-10.25,0-15.37-.1-2.78.45-4.05,3.68-4q29.67.21,59.36,0c3.11,0,3.87,1,3.76,3.92Q289.31,217.3,289.61,225.51Z"/><path class="moving_parts" id="icon_banner_middle_mobile" d="M285,262.73c-9.72-.28-19.46-.09-29.19-.09-9.56,0-19.12-.13-28.67.07-3.23.06-4.36-.87-4.2-4.16.25-5.12.2-10.26,0-15.39-.11-3.08.69-4.38,4.09-4.34q29.19.19,58.4,0c3.33,0,4.3,1.05,4.16,4.26a141.65,141.65,0,0,0,0,14.86C289.78,261.53,288.81,262.84,285,262.73Z"/><path class="moving_parts" id="icon_banner_bottom_mobile" d="M285.83,296c-9.9-.1-19.79,0-29.68,0-9.72,0-19.44-.13-29.15.06-3.22.08-4.36-.79-4.2-4.12.26-5.47.18-11,0-16.42-.08-2.53.72-3.33,3.3-3.32q30.21.13,60.41,0c2.27,0,3.1.65,3.06,3-.14,5.82-.2,11.67,0,17.49C289.74,295.65,288.32,296,285.83,296Z"/></g></g></svg>
