<svg xmlns="http://www.w3.org/2000/svg" viewBox="0 0 392.71 350"><title>brand</title><g id="Layer_2" data-name="Layer 2"><g id="Lag_1" data-name="Lag 1"><path d="M175,335A160,160,0,0,1,15,175C15,86.78,86.78,15,175,15c70.56,0,130.59,45.91,151.81,109.42l14-5.53C317.34,49.83,251.88,0,175,0,78.51,0,0,78.5,0,175a175,175,0,0,0,323.5,92.5l-26,10.29A159.69,159.69,0,0,1,175,335Z"/><path d="M249.22,58.15,200.69,41.33a20.08,20.08,0,0,0-15.45.91c-.18.09-.35.17-.52.27A25.19,25.19,0,0,1,193,50.26a10.26,10.26,0,0,1,4.38.51L245.94,67.6a10.25,10.25,0,0,1,6.32,13l-29.15,84.07L201.49,227,197.36,239v30.53l2.65-7.65,13.75-39.66,4.33-12.46,13-37.41,4.32-12.47,26.33-75.94A20.26,20.26,0,0,0,249.22,58.15Z"/><polygon points="241.09 85.57 223.45 136.45 197.36 127.4 197.36 70.4 241.09 85.57"/><polygon points="219.04 149.17 201.4 200.06 197.36 198.66 197.36 141.66 219.04 149.17"/><path d="M391.29,196.63l-18.9-47.75a22.18,22.18,0,0,0-1-2.15c-.25-.46-.51-.91-.79-1.34a20.23,20.23,0,0,0-24.47-7.88l-7,2.77L325,145.89l-92.1,36.45-4.32,12.47L326.62,156,341,150.31l8.84-3.5a10.23,10.23,0,0,1,13.28,5.75L382,200.31a10.24,10.24,0,0,1-5.75,13.28L334.8,230l-18.62,7.37-118.69,47-4,11.57c-.11.31-.22.61-.34.91l116.94-46.29,20.18-8,49.66-19.66A20.26,20.26,0,0,0,391.29,196.63Z"/><polygon points="240.02 257.91 201.35 273.21 201.81 271.87 201.82 271.87 239.62 256.91 240.02 257.91"/><polygon points="365.21 208.36 337.86 219.18 320.28 226.14 315.13 228.18 314.73 227.18 311.05 217.88 299.35 188.3 295.67 179 295.31 178.1 327.57 165.33 342.13 159.57 345.39 158.28 345.75 159.19 364.81 207.36 365.21 208.36"/><polygon points="302.61 233.14 252.54 252.96 252.14 251.95 248.46 242.65 236.75 213.07 233.07 203.77 232.72 202.88 282.79 183.06 283.15 183.96 286.82 193.25 298.53 222.84 302.21 232.13 302.61 233.14"/><polygon points="240.02 257.91 201.35 273.21 201.81 271.87 201.82 271.87 206.14 259.4 219.89 219.75 222.24 212.98 224.24 218.03 235.94 247.61 239.62 256.91 240.02 257.91"/><circle cx="170.07" cy="282.07" r="7.41"/><path d="M172.14,44.13H120.77a20.25,20.25,0,0,0-20.22,20.23V287a20.24,20.24,0,0,0,20.22,20.23h51.37a20,20,0,0,0,6.49-1.08A20.23,20.23,0,0,0,192.36,287V64.36A20.25,20.25,0,0,0,172.14,44.13Zm-51.37,10h51.37a10.24,10.24,0,0,1,10.22,10.23v37.28H110.55V64.36A10.23,10.23,0,0,1,120.77,54.13Zm51.37,243.13H120.77A10.23,10.23,0,0,1,110.55,287V239.65h71.81V287A10.24,10.24,0,0,1,172.14,297.26Z"/></g></g></svg>