<!-- Generator: Adobe Illustrator 19.0.0, SVG Export Plug-In  -->
<svg version="1.1"
	 xmlns="http://www.w3.org/2000/svg" xmlns:xlink="http://www.w3.org/1999/xlink" xmlns:a="http://ns.adobe.com/AdobeSVGViewerExtensions/3.0/"
	 x="0px" y="0px" width="96px" height="96px" viewBox="0 0 96 96" style="enable-background:new 0 0 96 96;" xml:space="preserve">
<style type="text/css">
	.st0{clip-path:url(#SVGID_3_);fill:none;stroke:#000000;stroke-width:8;stroke-miterlimit:10;}
	.st1{clip-path:url(#SVGID_4_);}
	.st2{clip-path:url(#SVGID_6_);fill:none;stroke:#000000;stroke-width:8;stroke-miterlimit:10;}
	.st3{clip-path:url(#SVGID_8_);}
</style>
<defs>
</defs>
<g>
	<defs>
		<path id="SVGID_2_" d="M48,92c24.3,0,44-19.7,44-44C92,23.7,72.3,4,48,4C23.7,4,4,23.7,4,48C4,72.3,23.7,92,48,92L48,92z M48,92"
			/>
	</defs>
	<clipPath id="SVGID_3_">
		<use xlink:href="#SVGID_2_"  style="overflow:visible;"/>
	</clipPath>
	<path class="st0" d="M48,92c24.3,0,44-19.7,44-44S72.3,4,48,4C23.7,4,4,23.7,4,48S23.7,92,48,92L48,92z M48,92"/>
</g>
<g>
	<defs>
		<path id="SVGID_1_" d="M50.6,74h-9.8V51H36v-7.9h4.9v-4.8c0-6.5,2.8-10.3,10.6-10.3H58v7.9h-4.1c-3,0-3.2,1.1-3.2,3.2l0,4H58
			L57.1,51h-6.5L50.6,74L50.6,74L50.6,74z M50.6,74"/>
	</defs>
	<clipPath id="SVGID_4_">
		<use xlink:href="#SVGID_1_"  style="overflow:visible;"/>
	</clipPath>
	<rect x="26" y="18" class="st1" width="42" height="66"/>
</g>
</svg>
