<svg xmlns="http://www.w3.org/2000/svg" viewBox="0 0 88 88"><defs><style>.cls-1,.cls-2{fill:#fff;}.cls-2{fill-rule:evenodd;}</style></defs><title>fb</title><g id="Layer_2" data-name="Layer 2"><g id="Layer_1-2" data-name="Layer 1"><path class="cls-1" d="M44,0A44,44,0,1,0,88,44,44,44,0,0,0,44,0Zm0,84A40,40,0,1,1,84,44,40,40,0,0,1,44,84Z"/><path class="cls-1" d="M54,39.07,53.14,47H46.63V70H36.87V47H32V39.07h4.87V34.31C36.87,27.85,39.63,24,47.45,24H54v7.93H49.89c-3,0-3.25,1.11-3.25,3.17v4Z"/><path id="SVGID" class="cls-2" d="M46.63,39.07v-4c0-2.06.2-3.17,3.25-3.17H54V24H47.45c-7.82,0-10.58,3.85-10.58,10.31v4.76H32V47h4.87V70h9.76V47h6.51L54,39.07Z"/></g></g></svg>