<svg xmlns="http://www.w3.org/2000/svg" viewBox="0 0 88 88"><defs><style>.cls-1,.cls-2{fill:#fff;}.cls-2{fill-rule:evenodd;}</style></defs><title>in</title><g id="Layer_2" data-name="Layer 2"><g id="Layer_1-2" data-name="Layer 1"><path class="cls-1" d="M44,0A44,44,0,1,0,88,44,44,44,0,0,0,44,0Zm0,84A40,40,0,1,1,84,44,40,40,0,0,1,44,84Z"/><path class="cls-1" d="M33.46,28.71a4.54,4.54,0,0,1-4.75,4.72h-.06A4.51,4.51,0,0,1,24,28.72,4.55,4.55,0,0,1,28.76,24,4.52,4.52,0,0,1,33.46,28.71Z"/><rect class="cls-1" x="25.01" y="36.83" width="7.8" height="27.17"/><path class="cls-1" d="M64,48.89V64H55.16V49.94c0-3.68-1.38-6.19-4.42-6.19a4.54,4.54,0,0,0-4.23,3.33,6.91,6.91,0,0,0-.19,2.22V64H37.57s.11-24.91,0-27.17h8.75v4.26c.52-1.86,3.32-4.53,7.79-4.53C59.65,36.56,64,40.48,64,48.89Z"/><g id="SVGID"><path class="cls-2" d="M25,36.83V64h7.8V36.83ZM28.76,24A4.55,4.55,0,0,0,24,28.72a4.51,4.51,0,0,0,4.65,4.71h.06a4.54,4.54,0,0,0,4.75-4.72A4.52,4.52,0,0,0,28.76,24ZM54.11,36.56c-4.47,0-7.27,2.67-7.79,4.53V36.83H37.57c.11,2.26,0,27.17,0,27.17h8.75V49.3a6.91,6.91,0,0,1,.19-2.22,4.54,4.54,0,0,1,4.23-3.33c3,0,4.42,2.51,4.42,6.19V64H64V48.89C64,40.48,59.65,36.56,54.11,36.56Z"/></g></g></g></svg>