<svg xmlns="http://www.w3.org/2000/svg" viewBox="0 0 88 88"><defs><style>.cls-1,.cls-2{fill:#fff;}.cls-2{fill-rule:evenodd;}</style></defs><title>insta</title><g id="Layer_2" data-name="Layer 2"><g id="Layer_1-2" data-name="Layer 1"><path class="cls-1" d="M44,0A44,44,0,1,0,88,44,44,44,0,0,0,44,0Zm0,84A40,40,0,1,1,84,44,40,40,0,0,1,44,84Z"/><path class="cls-1" d="M44,32.74A11.31,11.31,0,1,0,55.35,44,11.3,11.3,0,0,0,44,32.74Zm0,18.64A7.34,7.34,0,1,1,51.38,44,7.34,7.34,0,0,1,44,51.38Z"/><path class="cls-1" d="M58.32,32.21A2.62,2.62,0,1,1,55.7,29.6,2.62,2.62,0,0,1,58.32,32.21Z"/><path class="cls-1" d="M65.87,34.93a16.35,16.35,0,0,0-1-5.34,11,11,0,0,0-2.54-3.9,10.81,10.81,0,0,0-3.9-2.53,16.06,16.06,0,0,0-5.34-1C50.72,22,50,22,44,22s-6.72,0-9.07.13a16.06,16.06,0,0,0-5.34,1,10.81,10.81,0,0,0-3.9,2.53,11,11,0,0,0-2.54,3.9,16.35,16.35,0,0,0-1,5.34C22,37.28,22,38,22,44s0,6.72.13,9.07a16.35,16.35,0,0,0,1,5.34,11.26,11.26,0,0,0,6.44,6.44,16.35,16.35,0,0,0,5.34,1C37.28,66,38,66,44,66s6.72,0,9.07-.13a16.35,16.35,0,0,0,5.34-1,11.26,11.26,0,0,0,6.44-6.44,16.35,16.35,0,0,0,1-5.34C66,50.72,66,50,66,44S66,37.28,65.87,34.93Zm-4,18A12.34,12.34,0,0,1,61.15,57,7.35,7.35,0,0,1,57,61.15a12.2,12.2,0,0,1-4.08.76c-2.32.1-3,.13-8.89.13s-6.57,0-8.89-.13A12.2,12.2,0,0,1,31,61.15,7.35,7.35,0,0,1,26.85,57a12.34,12.34,0,0,1-.76-4.09C26,50.57,26,49.87,26,44s0-6.57.13-8.89A12.2,12.2,0,0,1,26.85,31,7.33,7.33,0,0,1,31,26.85a12.2,12.2,0,0,1,4.08-.76c2.32-.1,3-.13,8.89-.13s6.57,0,8.89.13a12.2,12.2,0,0,1,4.08.76A7.33,7.33,0,0,1,61.15,31a12.2,12.2,0,0,1,.76,4.08c.1,2.32.13,3,.13,8.89S62,50.57,61.91,52.89Z"/><path id="SVGID" class="cls-2" d="M55.7,29.6a2.62,2.62,0,1,0,2.62,2.61A2.61,2.61,0,0,0,55.7,29.6ZM44,32.74A11.31,11.31,0,1,0,55.35,44,11.3,11.3,0,0,0,44,32.74Zm0,18.64A7.34,7.34,0,1,1,51.38,44,7.34,7.34,0,0,1,44,51.38Zm0-18.64A11.31,11.31,0,1,0,55.35,44,11.3,11.3,0,0,0,44,32.74Zm0,18.64A7.34,7.34,0,1,1,51.38,44,7.34,7.34,0,0,1,44,51.38ZM55.7,29.6a2.62,2.62,0,1,0,2.62,2.61A2.61,2.61,0,0,0,55.7,29.6Zm0,0a2.62,2.62,0,1,0,2.62,2.61A2.61,2.61,0,0,0,55.7,29.6ZM44,32.74A11.31,11.31,0,1,0,55.35,44,11.3,11.3,0,0,0,44,32.74Zm0,18.64A7.34,7.34,0,1,1,51.38,44,7.34,7.34,0,0,1,44,51.38ZM65.87,34.93a16.35,16.35,0,0,0-1-5.34,11,11,0,0,0-2.54-3.9,10.81,10.81,0,0,0-3.9-2.53,16.06,16.06,0,0,0-5.34-1C50.72,22,50,22,44,22s-6.72,0-9.07.13a16.06,16.06,0,0,0-5.34,1,10.81,10.81,0,0,0-3.9,2.53,11,11,0,0,0-2.54,3.9,16.35,16.35,0,0,0-1,5.34C22,37.28,22,38,22,44s0,6.72.13,9.07a16.35,16.35,0,0,0,1,5.34,11.26,11.26,0,0,0,6.44,6.44,16.35,16.35,0,0,0,5.34,1C37.28,66,38,66,44,66s6.72,0,9.07-.13a16.35,16.35,0,0,0,5.34-1,11.26,11.26,0,0,0,6.44-6.44,16.35,16.35,0,0,0,1-5.34C66,50.72,66,50,66,44S66,37.28,65.87,34.93Zm-4,18A12.34,12.34,0,0,1,61.15,57,7.35,7.35,0,0,1,57,61.15a12.2,12.2,0,0,1-4.08.76c-2.32.1-3,.13-8.89.13s-6.57,0-8.89-.13A12.2,12.2,0,0,1,31,61.15,7.35,7.35,0,0,1,26.85,57a12.34,12.34,0,0,1-.76-4.09C26,50.57,26,49.87,26,44s0-6.57.13-8.89A12.2,12.2,0,0,1,26.85,31,7.33,7.33,0,0,1,31,26.85a12.2,12.2,0,0,1,4.08-.76c2.32-.1,3-.13,8.89-.13s6.57,0,8.89.13a12.2,12.2,0,0,1,4.08.76A7.33,7.33,0,0,1,61.15,31a12.2,12.2,0,0,1,.76,4.08c.1,2.32.13,3,.13,8.89S62,50.57,61.91,52.89ZM55.7,29.6a2.62,2.62,0,1,0,2.62,2.61A2.61,2.61,0,0,0,55.7,29.6ZM44,32.74A11.31,11.31,0,1,0,55.35,44,11.3,11.3,0,0,0,44,32.74Zm0,18.64A7.34,7.34,0,1,1,51.38,44,7.34,7.34,0,0,1,44,51.38Zm0-18.64A11.31,11.31,0,1,0,55.35,44,11.3,11.3,0,0,0,44,32.74Zm0,18.64A7.34,7.34,0,1,1,51.38,44,7.34,7.34,0,0,1,44,51.38ZM55.7,29.6a2.62,2.62,0,1,0,2.62,2.61A2.61,2.61,0,0,0,55.7,29.6Zm0,0a2.62,2.62,0,1,0,2.62,2.61A2.61,2.61,0,0,0,55.7,29.6ZM44,32.74A11.31,11.31,0,1,0,55.35,44,11.3,11.3,0,0,0,44,32.74Zm0,18.64A7.34,7.34,0,1,1,51.38,44,7.34,7.34,0,0,1,44,51.38Zm0-18.64A11.31,11.31,0,1,0,55.35,44,11.3,11.3,0,0,0,44,32.74Zm0,18.64A7.34,7.34,0,1,1,51.38,44,7.34,7.34,0,0,1,44,51.38ZM55.7,29.6a2.62,2.62,0,1,0,2.62,2.61A2.61,2.61,0,0,0,55.7,29.6Z"/></g></g></svg>