<!-- Generator: Adobe Illustrator 19.0.0, SVG Export Plug-In  -->
<svg version="1.1"
	 xmlns="http://www.w3.org/2000/svg" xmlns:xlink="http://www.w3.org/1999/xlink" xmlns:a="http://ns.adobe.com/AdobeSVGViewerExtensions/3.0/"
	 x="0px" y="0px" width="96px" height="96px" viewBox="0 0 96 96" style="enable-background:new 0 0 96 96;" xml:space="preserve">
<style type="text/css">
	.st0{clip-path:url(#SVGID_3_);fill:none;stroke:#000000;stroke-width:8;stroke-miterlimit:10;}
	.st1{clip-path:url(#SVGID_4_);}
	.st2{clip-path:url(#SVGID_6_);fill:none;stroke:#000000;stroke-width:8;stroke-miterlimit:10;}
	.st3{clip-path:url(#SVGID_8_);}
</style>
<defs>
</defs>
<g>
	<defs>
		<path id="SVGID_2_" d="M48,92c24.3,0,44-19.7,44-44C92,23.7,72.3,4,48,4C23.7,4,4,23.7,4,48C4,72.3,23.7,92,48,92L48,92z M48,92"
			/>
	</defs>
	<clipPath id="SVGID_3_">
		<use xlink:href="#SVGID_2_"  style="overflow:visible;"/>
	</clipPath>
	<path class="st0" d="M48,92c24.3,0,44-19.7,44-44S72.3,4,48,4S4,23.7,4,48S23.7,92,48,92L48,92z M48,92"/>
</g>
<g>
	<defs>
		<path id="SVGID_1_" d="M48,30c5.9,0,6.6,0,8.9,0.1c2.1,0.1,3.3,0.5,4.1,0.8c1,0.4,1.8,0.9,2.5,1.6c0.8,0.8,1.2,1.5,1.6,2.5
			c0.3,0.8,0.7,1.9,0.8,4.1c0.1,2.3,0.1,3,0.1,8.9s0,6.6-0.1,8.9c-0.1,2.1-0.5,3.3-0.8,4.1c-0.4,1-0.9,1.8-1.6,2.5
			c-0.8,0.8-1.5,1.2-2.5,1.6c-0.8,0.3-1.9,0.7-4.1,0.8C54.6,66,53.9,66,48,66c-5.9,0-6.6,0-8.9-0.1c-2.1-0.1-3.3-0.5-4.1-0.8
			c-1-0.4-1.8-0.9-2.5-1.6S31.2,62,30.8,61c-0.3-0.8-0.7-1.9-0.8-4.1C30,54.6,30,53.9,30,48s0-6.6,0.1-8.9c0.1-2.1,0.5-3.3,0.8-4.1
			c0.4-1,0.9-1.8,1.6-2.5c0.8-0.8,1.5-1.2,2.5-1.6c0.8-0.3,1.9-0.7,4.1-0.8C41.4,30,42.1,30,48,30 M48,26c-6,0-6.7,0-9.1,0.1
			c-2.3,0.1-3.9,0.5-5.3,1c-1.4,0.6-2.7,1.3-3.9,2.5c-1.2,1.2-2,2.5-2.5,3.9c-0.5,1.4-0.9,3-1,5.3C26,41.3,26,42,26,48
			c0,6,0,6.7,0.1,9.1c0.1,2.3,0.5,3.9,1,5.3c0.6,1.4,1.3,2.7,2.5,3.9c1.2,1.2,2.4,2,3.9,2.5c1.4,0.5,3,0.9,5.3,1
			C41.3,70,42,70,48,70s6.7,0,9.1-0.1c2.3-0.1,3.9-0.5,5.3-1c1.4-0.6,2.7-1.3,3.9-2.5c1.2-1.2,2-2.4,2.5-3.9c0.5-1.4,0.9-3,1-5.3
			C70,54.7,70,54,70,48c0-6,0-6.7-0.1-9.1c-0.1-2.3-0.5-3.9-1-5.3c-0.6-1.4-1.3-2.7-2.5-3.9c-1.2-1.2-2.4-2-3.9-2.5
			c-1.4-0.5-3-0.9-5.3-1C54.7,26,54,26,48,26L48,26z M48,36.7c-6.2,0-11.3,5.1-11.3,11.3c0,6.2,5.1,11.3,11.3,11.3
			S59.3,54.3,59.3,48C59.3,41.8,54.3,36.7,48,36.7L48,36.7z M48,55.4c-4.1,0-7.3-3.3-7.3-7.3c0-4.1,3.3-7.3,7.3-7.3
			c4.1,0,7.3,3.3,7.3,7.3C55.4,52.1,52.1,55.4,48,55.4L48,55.4z M62.3,36.2c0,1.4-1.2,2.6-2.6,2.6s-2.6-1.2-2.6-2.6
			c0-1.4,1.2-2.6,2.6-2.6S62.3,34.8,62.3,36.2L62.3,36.2z M62.3,36.2"/>
	</defs>
	<clipPath id="SVGID_4_">
		<use xlink:href="#SVGID_1_"  style="overflow:visible;"/>
	</clipPath>
	<rect x="16" y="16" class="st1" width="64" height="64"/>
</g>
</svg>
