<!-- Generator: Adobe Illustrator 19.0.0, SVG Export Plug-In  -->
<svg version="1.1"
	 xmlns="http://www.w3.org/2000/svg" xmlns:xlink="http://www.w3.org/1999/xlink" xmlns:a="http://ns.adobe.com/AdobeSVGViewerExtensions/3.0/"
	 x="0px" y="0px" width="96px" height="96px" viewBox="0 0 96 96" style="enable-background:new 0 0 96 96;" xml:space="preserve">
<style type="text/css">
	.st0{clip-path:url(#SVGID_3_);fill:none;stroke:#000000;stroke-width:8;stroke-miterlimit:10;}
	.st1{clip-path:url(#SVGID_4_);}
	.st2{clip-path:url(#SVGID_6_);fill:none;stroke:#000000;stroke-width:8;stroke-miterlimit:10;}
	.st3{clip-path:url(#SVGID_8_);}
</style>
<defs>
</defs>
<g>
	<defs>
		<path id="SVGID_2_" d="M48,92c24.3,0,44-19.7,44-44C92,23.7,72.3,4,48,4S4,23.7,4,48C4,72.3,23.7,92,48,92L48,92z M48,92"/>
	</defs>
	<clipPath id="SVGID_3_">
		<use xlink:href="#SVGID_2_"  style="overflow:visible;"/>
	</clipPath>
	<path class="st0" d="M48,92c24.3,0,44-19.7,44-44S72.3,4,48,4S4,23.7,4,48S23.7,92,48,92L48,92z M48,92"/>
</g>
<g>
	<defs>
		<path id="SVGID_1_" d="M29,40.8h7.8V68H29V40.8L29,40.8z M32.7,37.4L32.7,37.4c-2.9,0-4.7-2.1-4.7-4.7c0-2.7,1.9-4.7,4.8-4.7
			c2.9,0,4.6,2,4.7,4.7C37.5,35.3,35.6,37.4,32.7,37.4L32.7,37.4L32.7,37.4z M68,68h-8.8V53.9c0-3.7-1.4-6.2-4.4-6.2
			c-2.3,0-3.6,1.7-4.2,3.3c-0.2,0.6-0.2,1.4-0.2,2.2V68h-8.8c0,0,0.1-24.9,0-27.2h8.8v4.3c0.5-1.9,3.3-4.5,7.8-4.5
			c5.5,0,9.9,3.9,9.9,12.3V68L68,68L68,68z M68,68"/>
	</defs>
	<clipPath id="SVGID_4_">
		<use xlink:href="#SVGID_1_"  style="overflow:visible;"/>
	</clipPath>
	<rect x="18" y="18" class="st1" width="60" height="60"/>
</g>
</svg>
