<svg version="1.1" id="Social_svg_icon" xmlns="http://www.w3.org/2000/svg" xmlns:xlink="http://www.w3.org/1999/xlink" x="0px" y="0px"
  viewBox="0 0 350 350" style="enable-background:new 0 0 350 350;" xml:space="preserve" ><g><path d="M168.5,0.1C72.1,3.7-3.5,85,0.1,181.5c1.3,36.3,13.9,71.2,36,100l8.3-14c-18-25.4-28.2-55.5-29.3-86.5
    c-3.3-88.2,65.8-162.6,154-165.8s162.6,65.8,165.8,154c3.2,88.3-65.8,162.6-154.1,165.8c-22.5,0.8-44.9-3.1-65.8-11.6
    c-5-2-9.8-4.3-14.6-6.8l-13.2,9.9c28.5,16.6,61.2,24.7,94.2,23.5c96.4-3.6,172-84.9,168.4-181.4S265-3.5,168.5,0.1z"/><path d="M282.1,113.5c3.9,0,7,3.1,7,7l0,0v114.9c0,3.9-3.1,7-7,7L154,242.5c-2.8,0-5.6,0.9-7.9,2.5l-88.2,61.1l31.3-48.3
      c3-4.6,1.7-10.8-3-13.8c-1.6-1.1-3.5-1.6-5.4-1.6h-8.9c-3.9,0-7-3.1-7-7V120.5c0-3.9,3.1-7,7-7l0,0H282.1 M282.1,103.5H71.9
      c-9.4,0-17,7.6-17,17v114.9c0,9.4,7.6,17,17,17h8.9l-38.2,59c-2.2,3.5-1,8.2,2.5,10.3c2.4,1.5,5.4,1.5,7.9,0l98.9-68.5
    c0.7-0.5,1.4-0.7,2.2-0.7l128.2-0.1c9.4,0,17-7.6,17-17V120.5C299.2,111.1,291.5,103.5,282.1,103.5L282.1,103.5z"/></g><g id="social_icon_dots"><g><circle class="moving_parts" id= "icon_circle_01" cx="136.3" cy="179" r="15.5"/></g><g><circle class="moving_parts" id= "icon_circle_02" cx="178.3" cy="179" r="15.5"/></g><g><circle class="moving_parts" id= "icon_circle_03" cx="220.3" cy="179" r="15.5"/></g>
  </g></svg>
