<svg xmlns="http://www.w3.org/2000/svg" viewBox="0 0 350 350.01"><title>sociale</title><g id="Layer_2" data-name="Layer 2"><g id="Lag_1" data-name="Lag 1"><path d="M168.53.12C72.11,3.69-3.45,85,.12,181.47a174.64,174.64,0,0,0,36,100l8.32-14a159.58,159.58,0,0,1-29.3-86.54c-3.26-88.16,65.81-162.55,154-165.81s162.55,65.81,165.81,154A160.07,160.07,0,0,1,115,323.36a154.24,154.24,0,0,1-14.59-6.79l-13.16,9.86a174.15,174.15,0,0,0,94.22,23.45c96.44-3.57,172-84.92,168.41-181.35S265-3.45,168.53.12Z"/><path d="M282.15,113.5a7,7,0,0,1,7,7V235.41a7,7,0,0,1-7,7L154,242.5a13.87,13.87,0,0,0-7.91,2.47L57.86,306.12l31.3-48.27a10,10,0,0,0-8.39-15.44H71.86a7,7,0,0,1-7-7V120.5a7,7,0,0,1,7-7H282.15m0-10H71.86a17,17,0,0,0-17,17V235.41a17,17,0,0,0,17,17h8.91l-38.24,59A7.52,7.52,0,0,0,52.9,321.72l98.87-68.53a3.89,3.89,0,0,1,2.22-.69l128.16-.09a17,17,0,0,0,17-17V120.5a17,17,0,0,0-17-17Z"/><circle cx="136.27" cy="179" r="15.5"/><circle cx="178.27" cy="179" r="15.5"/><circle cx="220.27" cy="179" r="15.5"/></g></g></svg>