
<svg version="1.1" id="Layer_1" xmlns="http://www.w3.org/2000/svg" xmlns:xlink="http://www.w3.org/1999/xlink" x="0px" y="0px"
	 viewBox="0 0 350 350" style="enable-background:new 0 0 350 350;" xml:space="preserve">
<g>
	<g>
		<g>
			<path d="M175,0C78.5,0,0,78.5,0,175c0,36.6,11.3,71.5,31.7,100.5c6,1,11.5,3.3,16.1,5.3l1.1,0.5c2.7,1.1,5.8,2.1,9.2,3
				C30.7,255,15,216.1,15,175C15,86.8,86.8,15,175,15c23.4,0,45.6,5,65.6,14.1l11.3-11.3C228.6,6.4,202.6,0,175,0z M325.6,86
				l-11.1,10.9c13,23.1,20.4,49.8,20.4,78.2c0,80.9-60.3,147.9-138.4,158.5c-8.5,5.7-18.8,11.4-31.1,16.2c3.1,0.2,6.3,0.3,9.5,0.3
				c96.5,0,175-78.5,175-175C350,142.5,341.1,112.1,325.6,86z"/>
		</g>
	</g>
	<g>
		<g>
			<path d="M335.9,47.9l-21.6,21.2l-10.8,10.6l-73.4,72.1c-0.2,0.2-0.6,0.2-0.9,0l-42.1-40.1c-0.3-0.3-0.3-0.7,0-0.9L259,38.9l34-34
				c4.5-4.5,11.9-4.5,16.5,0l26.4,26.4C340.5,35.9,340.5,43.3,335.9,47.9z"/>
		</g>
		<g>
			<g>
				<path d="M335.9,47.9l-21.6,21.2l-10.8,10.6l-73.4,72.1c-0.2,0.2-0.6,0.2-0.9,0l-42.1-40.1c-0.3-0.3-0.3-0.7,0-0.9L259,38.9
					l34-34c4.5-4.5,11.9-4.5,16.5,0l26.4,26.4C340.5,35.9,340.5,43.3,335.9,47.9z"/>
			</g>
		</g>
		<g>
			<path d="M167,131.9l-10,51.7c0,0.1,0.1,0.3,0.2,0.2l51.7-10c0.5-0.1,0.7-0.7,0.3-1.1l-41.3-41.3
				C167.7,131.2,167.1,131.4,167,131.9z"/>
		</g>
	</g>
	<g>
		<g>
			<path d="M88.4,236.4c-10-19.5,32.4-28,42.1-29.7c0.9-0.1,1.5,0.8,1,1.6c-2.7,4.2-17.4,13.1-21.1,16.8
				c-6.6,6.8-2.5,10.4,13.5,14.3c0.9,0.2,1.1,1.4,0.3,1.8l-17.1,10.9c-0.3,0.2-0.7,0.2-1,0.1C98.5,248.4,92,243.4,88.4,236.4z"/>
			<path d="M87.5,309c4.3,0.4,9,0.7,14,0.9c0.4,0.6,0.5,0.8,0.9,1.5l-15.7,31h0c-53.5-2.6-72.5-31-69.4-40.6c3.6-11.1,14-6.2,24-2.1
				c4.6,1.9,9.9,3.6,16.3,5C65.5,306.5,75.3,307.9,87.5,309z"/>
			<path d="M212.8,289.4c0.8,0,1.3,1,0.8,1.6c-10.1,13.3-29.9,31.5-61.4,42.4c-9.8,3.4-20.7,6-32.8,7.6c-1.2,0.2-2.5,0.3-3.8,0.4
				l-1.4,0.1c-0.8,0.1-1.3-0.7-1-1.4l14.6-31.9c0,0,0,0,0,0c19-3.9,37.4-12.8,48.1-20.2h0L212.8,289.4z"/>
			<path d="M155.2,263.4c-6-0.7-16.1-1.6-26.9-3.9c-0.9-0.2-1.1-1.3-0.4-1.8l19.4-13.2c0.2-0.1,0.5-0.2,0.7-0.2
				c5.7,1,12,2.1,18.9,3.3c41,7.2,51.6,16.5,54,23.7c0.2,0.7-0.2,1.4-1,1.4h-33.9c-0.4,0-0.7-0.2-0.9-0.5
				C181.5,266.2,166.2,264.7,155.2,263.4z"/>
		</g>
	</g>
</g>
</svg>
