<svg xmlns="http://www.w3.org/2000/svg" viewBox="0 0 88 88"><defs><style>.cls-1{fill:#fff;}</style></defs><title>v</title><g id="Layer_2" data-name="Layer 2"><g id="Layer_1-2" data-name="Layer 1"><path class="cls-1" d="M44,0A44,44,0,1,0,88,44,44,44,0,0,0,44,0ZM74,70.42A40.43,40.43,0,0,1,70.41,74a39.89,39.89,0,0,1-52.83,0A39,39,0,0,1,14,70.42a40,40,0,1,1,60,0Z"/><path class="cls-1" d="M64,36.33Q63.71,42.41,55.82,53,47.68,64,42,64c-2.32,0-4.3-2.24-5.91-6.72q-1.62-6.18-3.23-12.35Q31.07,38.19,29,38.2a12,12,0,0,0-3.14,2L24,37.64q3-2.72,5.83-5.42,3.93-3.55,5.91-3.75,4.66-.46,5.74,6.64c.77,5.12,1.31,8.29,1.61,9.54C44,48.89,45,51,46.05,51c.83,0,2.09-1.36,3.77-4.1s2.56-4.83,2.68-6.27q.36-3.56-2.68-3.55a7.38,7.38,0,0,0-3,.65q3-10,11.29-9.72Q64.33,28.19,64,36.33Z"/></g></g></svg>