<svg xmlns="http://www.w3.org/2000/svg" viewBox="0 0 350 350"><title>webudvikling</title><g id="Layer_2" data-name="Layer 2"><g id="Lag_1" data-name="Lag 1"><path d="M292.07,45q-1.89,3-4.11,6.08t-4.79,6.11A159.61,159.61,0,0,1,335,175c0,88.22-71.77,160-160,160A160,160,0,0,1,15,175C15,86.78,86.78,15,175,15a159.16,159.16,0,0,1,65.87,14.19,53.53,53.53,0,0,0,9.69-12A173.78,173.78,0,0,0,175,0C78.51,0,0,78.5,0,175A174.88,174.88,0,0,0,175,350c96.5,0,175-78.5,175-175A174.63,174.63,0,0,0,292.07,45Z"/><path d="M280.77,245.21h-215a17,17,0,0,1-17-17V140.35a17,17,0,0,1,17-17h215a17,17,0,0,1,17,17v87.86A17,17,0,0,1,280.77,245.21Zm-215-111.86a7,7,0,0,0-7,7v87.86a7,7,0,0,0,7,7h215a7,7,0,0,0,7-7V140.35a7,7,0,0,0-7-7Z"/><rect x="119.98" y="201.32" width="107.54" height="15.36" rx="2" ry="2"/><rect x="96.94" y="201.32" width="15.36" height="15.36" rx="2" ry="2"/><rect x="72.93" y="201.32" width="15.36" height="15.36" rx="2" ry="2"/><rect x="258.24" y="201.32" width="15.36" height="15.36" rx="2" ry="2"/><rect x="235.2" y="201.32" width="15.36" height="15.36" rx="2" ry="2"/><rect x="96.94" y="155.23" width="15.36" height="15.36" rx="2" ry="2"/><rect x="72.93" y="155.23" width="15.36" height="15.36" rx="2" ry="2"/><rect x="258.24" y="155.23" width="15.36" height="15.36" rx="2" ry="2"/><rect x="235.2" y="155.23" width="15.36" height="15.36" rx="2" ry="2"/><rect x="85.42" y="178.28" width="15.36" height="15.36" rx="2" ry="2"/><rect x="246.72" y="178.28" width="15.36" height="15.36" rx="2" ry="2"/><rect x="223.68" y="178.28" width="15.36" height="15.36" rx="2" ry="2"/><rect x="212.16" y="155.23" width="15.36" height="15.36" rx="2" ry="2"/><rect x="200.63" y="178.28" width="15.36" height="15.36" rx="2" ry="2"/><rect x="177.59" y="178.28" width="15.36" height="15.36" rx="2" ry="2"/><rect x="154.55" y="178.28" width="15.36" height="15.36" rx="2" ry="2"/><rect x="131.5" y="178.28" width="15.36" height="15.36" rx="2" ry="2"/><rect x="108.46" y="178.28" width="15.36" height="15.36" rx="2" ry="2"/><rect x="189.11" y="155.23" width="15.36" height="15.36" rx="2" ry="2"/><rect x="166.07" y="155.23" width="15.36" height="15.36" rx="2" ry="2"/><rect x="143.03" y="155.23" width="15.36" height="15.36" rx="2" ry="2"/><rect x="119.98" y="155.23" width="15.36" height="15.36" rx="2" ry="2"/><path d="M173.74,114.15a5,5,0,0,1-5-4.42c-.15-1.3-3.38-31.83,21.88-45.3a52.89,52.89,0,0,1,21.45-5.71c1.64-.11,3.5-.24,5.48-.18,25.14.78,30.8-6.2,38.64-15.84,1.1-1.37,2.25-2.78,3.49-4.21A80.21,80.21,0,0,0,267.93,27a87.39,87.39,0,0,0,8.54-19,5,5,0,1,1,9.64,2.64,95.75,95.75,0,0,1-9.58,21.5A91,91,0,0,1,267.28,45c-1.13,1.32-2.23,2.67-3.29,4-8.55,10.52-16.63,20.46-46.7,19.54a45,45,0,0,0-4.5.16,43.06,43.06,0,0,0-17.43,4.55c-19.31,10.3-16.67,35.07-16.64,35.32a5,5,0,0,1-4.39,5.55A5.83,5.83,0,0,1,173.74,114.15Z"/></g></g></svg>