
<svg version="1.1" id="Layer_1" xmlns="http://www.w3.org/2000/svg" xmlns:xlink="http://www.w3.org/1999/xlink" x="0px" y="0px"
	 viewBox="0 0 558.8 117.7" style="enable-background:new 0 0 558.8 117.7;" xml:space="preserve">
<style type="text/css">
	.st0{fill:#FFFFFF;}
</style>
<g>
	<g id="W">
		<path class="st0" d="M105.4,2.3H85.6c-1.2,0-2.1,0.8-2.3,2l-8.1,58.5L65,4.2c-0.2-1.1-1.2-1.9-2.3-1.9H44.9
			c-1.1,0-2.1,0.8-2.3,1.9l-9.7,58.1l-8.4-58c-0.2-1.1-1.1-2-2.3-2h-20C1.6,2.3,1,2.6,0.5,3.2C0.1,3.7-0.1,4.4,0,5.1l21.3,108.4
			c0.2,1.1,1.2,1.9,2.3,1.9h17.4c1.1,0,2.1-0.8,2.3-1.9l10.6-57.9l10.5,57.9c0.2,1.1,1.2,1.9,2.3,1.9h17.5c1.1,0,2.1-0.8,2.3-1.9
			L107.6,5.1c0.1-0.7,0-1.4-0.5-1.9C106.7,2.6,106.1,2.3,105.4,2.3z"/>
		<path class="st0" d="M179.9,2.3H159c-1.3,0-2.3,1-2.3,2.3v41.9h-16.3V4.6c0-1.3-1-2.3-2.3-2.3h-20.7c-1.3,0-2.3,1-2.3,2.3V113
			c0,1.3,1,2.3,2.3,2.3h20.7c1.3,0,2.3-1,2.3-2.3V66.8h16.3V113c0,1.3,1,2.3,2.3,2.3h20.9c1.3,0,2.3-1,2.3-2.3V4.6
			C182.2,3.4,181.1,2.3,179.9,2.3z"/>
		<path class="st0" d="M256.9,8.6c-6-5.7-14.5-8.6-25.2-8.6c-11,0-19.7,2.7-25.9,8c-6.1,5.2-9.2,12.5-9.2,21.6v55.5
			c0,21.2,11.9,32.4,34.4,32.4c11.5,0,20.3-3.1,26.3-9.2c5.5-5.6,8.3-13.3,8.3-22.8V30.1C265.5,21.3,262.6,14,256.9,8.6z
			 M222.5,28.6c0-6.3,2.5-8.9,8.5-8.9c5.9,0,8.5,2.7,8.5,8.9v60.5c0,6.3-2.5,9-8.5,9c-5.9,0-8.5-2.7-8.5-9V28.6z"/>
	</g>
	<g id="T">
		<path class="st0" d="M341.4,2.3h-64.3c-1.3,0-2.3,1-2.3,2.3v15.7c0,1.3,1,2.3,2.3,2.3h19.3V113c0,1.3,1,2.3,2.3,2.3h20.9
			c1.3,0,2.3-1,2.3-2.3V22.6h19.4c1.3,0,2.3-1,2.3-2.3V4.6C343.7,3.4,342.7,2.3,341.4,2.3z"/>
		<path class="st0" d="M413.6,2.3h-20.9c-1.3,0-2.3,1-2.3,2.3v41.9h-16.3V4.6c0-1.3-1-2.3-2.3-2.3h-20.7c-1.3,0-2.3,1-2.3,2.3V113
			c0,1.3,1,2.3,2.3,2.3h20.7c1.3,0,2.3-1,2.3-2.3V66.8h16.3V113c0,1.3,1,2.3,2.3,2.3h20.9c1.3,0,2.3-1,2.3-2.3V4.6
			C415.9,3.4,414.8,2.3,413.6,2.3z"/>
		<path class="st0" d="M477.3,4.2c-0.2-1.1-1.2-1.8-2.3-1.8h-27.3c-1.1,0-2,0.8-2.3,1.8l-22.3,108.4c-0.1,0.7,0,1.4,0.5,1.9
			c0.4,0.5,1.1,0.9,1.8,0.9H446c1.1,0,2.1-0.8,2.3-1.9l4.1-21.6h17.3l3.8,21.6c0.2,1.1,1.2,1.9,2.3,1.9h21.6c0.7,0,1.4-0.3,1.8-0.8
			c0.4-0.5,0.6-1.2,0.5-1.9L477.3,4.2z M466.3,71.9h-10.5l5.4-32.5L466.3,71.9z"/>
		<path class="st0" d="M556.5,2.3h-64.3c-1.3,0-2.3,1-2.3,2.3v15.7c0,1.3,1,2.3,2.3,2.3h19.3V113c0,1.3,1,2.3,2.3,2.3h20.9
			c1.3,0,2.3-1,2.3-2.3V22.6h19.4c1.3,0,2.3-1,2.3-2.3V4.6C558.8,3.4,557.7,2.3,556.5,2.3z"/>
	</g>
</g>
</svg>
