<!-- Generator: Adobe Illustrator 19.0.0, SVG Export Plug-In  -->
<svg version="1.1"
	 xmlns="http://www.w3.org/2000/svg" xmlns:xlink="http://www.w3.org/1999/xlink" xmlns:a="http://ns.adobe.com/AdobeSVGViewerExtensions/3.0/"
	 x="0px" y="0px" width="96px" height="96px" viewBox="0 0 96 96" style="enable-background:new 0 0 96 96;" xml:space="preserve">
<style type="text/css">
	.st0{clip-path:url(#SVGID_3_);fill:none;stroke:#000000;stroke-width:8;stroke-miterlimit:10;}
	.st1{clip-path:url(#SVGID_4_);}
	.st2{clip-path:url(#SVGID_6_);fill:none;stroke:#000000;stroke-width:8;stroke-miterlimit:10;}
	.st3{clip-path:url(#SVGID_8_);}
</style>
<defs>
</defs>
<g>
	<defs>
		<path id="SVGID_2_" d="M48,92c24.3,0,44-19.7,44-44S72.3,4,48,4S4,23.7,4,48S23.7,92,48,92L48,92z M48,92"/>
	</defs>
	<clipPath id="SVGID_3_">
		<use xlink:href="#SVGID_2_"  style="overflow:visible;"/>
	</clipPath>
	<path class="st0" d="M48,92c24.3,0,44-19.7,44-44S72.3,4,48,4S4,23.7,4,48S23.7,92,48,92L48,92z M48,92"/>
</g>
<g>
	<defs>
		<path id="SVGID_1_" d="M59.8,57c-5.4,7.4-10,11-13.8,11c-2.3,0-4.3-2.2-5.9-6.7C39,57.2,38,53,36.9,48.9c-1.2-4.5-2.5-6.7-3.9-6.7
			c-0.3,0-1.3,0.7-3.1,2L28,41.6c2-1.8,3.9-3.6,5.8-5.4c2.6-2.4,4.6-3.6,5.9-3.7c3.1-0.3,5,1.9,5.7,6.6c0.8,5.1,1.3,8.3,1.6,9.5
			c0.9,4.2,1.9,6.4,3,6.4c0.8,0,2.1-1.4,3.8-4.1c1.7-2.7,2.6-4.8,2.7-6.3c0.2-2.4-0.7-3.5-2.7-3.5c-1,0-1.9,0.2-3,0.7
			c2-6.7,5.7-9.9,11.3-9.7c4.1,0.1,6.1,2.9,5.8,8.3C67.8,44.4,65.1,49.9,59.8,57L59.8,57z M59.8,57"/>
	</defs>
	<clipPath id="SVGID_4_">
		<use xlink:href="#SVGID_1_"  style="overflow:visible;"/>
	</clipPath>
	<rect x="18" y="22" class="st1" width="60" height="56"/>
</g>
</svg>
