<?xml version="1.0" standalone="no"?>
<!DOCTYPE svg PUBLIC "-//W3C//DTD SVG 20010904//EN"
 "http://www.w3.org/TR/2001/REC-SVG-20010904/DTD/svg10.dtd">
<svg version="1.0" xmlns="http://www.w3.org/2000/svg"
 width="1200.000000pt" height="1200.000000pt" viewBox="0 0 1200.000000 1200.000000"
 preserveAspectRatio="xMidYMid meet">
<metadata>
Created by potrace 1.11, written by Peter Selinger 2001-2013
</metadata>
<g transform="translate(0.000000,1200.000000) scale(0.100000,-0.100000)"
fill="#000000" stroke="none">
<path d="M4825 7143 c-255 -32 -455 -162 -545 -355 -59 -126 -59 -133 -56
-923 2 -779 1 -764 58 -898 25 -61 94 -162 133 -195 91 -79 216 -134 353 -156
124 -21 343 -14 447 13 273 71 442 264 480 546 10 73 5 1388 -5 1453 -36 226
-182 395 -410 476 -101 36 -324 55 -455 39z m252 -448 c12 -8 31 -30 40 -48
17 -30 18 -85 21 -752 2 -522 0 -731 -8 -760 -22 -76 -72 -108 -170 -108 -97
0 -151 32 -170 103 -16 59 -14 1438 2 1491 15 52 62 88 125 98 56 8 127 -3
160 -24z"/>
<path d="M16 7084 c-9 -8 -16 -21 -16 -28 0 -10 44 -244 75 -396 2 -8 10 -53
19 -100 9 -47 18 -96 21 -110 3 -14 23 -117 45 -230 22 -113 49 -250 60 -305
11 -55 23 -113 26 -130 6 -36 71 -368 139 -715 9 -47 19 -96 21 -110 3 -14 11
-56 19 -95 8 -38 16 -81 18 -95 16 -86 21 -102 38 -110 21 -12 408 -13 426 -2
16 10 29 48 37 102 7 50 11 74 31 175 7 39 16 88 20 110 7 41 11 60 20 105 3
14 8 45 11 70 3 25 8 48 10 51 2 3 6 21 9 40 9 52 44 251 50 279 2 13 7 42 10
65 4 22 10 56 15 75 4 19 14 72 21 118 14 93 20 90 39 -18 7 -41 14 -84 16
-95 2 -11 11 -58 19 -105 8 -47 18 -98 21 -115 19 -103 131 -728 140 -785 3
-19 12 -45 20 -57 14 -23 18 -23 224 -23 165 0 211 3 223 14 11 11 57 219 83
372 2 16 9 52 14 79 6 28 12 61 15 75 3 14 9 48 15 75 6 28 12 61 15 75 3 14
14 75 26 135 11 61 41 214 65 340 25 127 47 241 50 255 2 14 6 36 9 50 2 14
29 153 59 310 31 157 57 296 60 310 2 14 16 84 30 155 31 157 32 181 7 195
-25 13 -456 14 -480 0 -13 -6 -21 -27 -26 -62 -4 -29 -8 -62 -10 -73 -5 -28
-14 -91 -21 -150 -3 -27 -7 -61 -10 -75 -2 -14 -15 -108 -29 -210 -33 -241
-35 -260 -40 -290 -2 -14 -7 -49 -10 -79 -4 -30 -8 -61 -10 -70 -2 -9 -11 -77
-21 -151 -20 -146 -18 -147 -44 10 -6 36 -13 76 -16 90 -12 64 -35 194 -39
228 -3 20 -8 48 -11 62 -2 14 -7 37 -9 53 -7 39 -24 143 -30 172 -2 14 -9 51
-14 83 -6 31 -13 74 -17 96 -3 21 -8 48 -10 60 -7 35 -33 188 -40 231 -3 22
-12 50 -20 63 -14 22 -18 22 -222 22 -155 0 -213 -3 -226 -13 -16 -12 -36
-103 -72 -342 -3 -22 -7 -49 -9 -60 -2 -11 -11 -63 -20 -115 -9 -52 -18 -107
-20 -122 -8 -45 -15 -86 -19 -115 -3 -16 -12 -71 -21 -123 -21 -123 -23 -137
-30 -184 -4 -21 -8 -46 -10 -55 -1 -9 -6 -36 -10 -61 -11 -69 -14 -82 -18 -86
-2 -2 -9 35 -15 83 -6 49 -18 135 -27 193 -8 58 -17 123 -20 145 -4 22 -8 47
-10 55 -2 8 -7 44 -10 80 -4 36 -9 67 -10 70 -2 3 -7 35 -10 70 -4 36 -8 67
-10 70 -2 4 -6 33 -10 66 -3 32 -7 66 -10 74 -2 8 -6 35 -9 60 -3 25 -8 54
-10 65 -2 11 -7 43 -10 70 -16 124 -19 141 -34 158 -14 15 -39 17 -248 17
-198 0 -235 -2 -248 -16z"/>
<path d="M2486 7084 c-14 -14 -16 -137 -16 -1208 0 -1143 1 -1194 18 -1209 16
-15 49 -17 260 -17 240 0 242 0 255 23 11 18 14 117 13 525 l-1 502 175 -2
174 -3 1 -506 c0 -414 3 -509 14 -522 12 -15 43 -17 255 -17 189 0 246 3 261
14 18 13 18 52 17 1212 -1 1127 -2 1199 -18 1211 -13 10 -79 13 -260 13 -212
0 -243 -2 -255 -17 -11 -13 -14 -101 -14 -477 l-1 -461 -174 0 -175 0 0 461
c0 374 -3 464 -14 478 -12 14 -43 16 -257 16 -207 0 -245 -2 -258 -16z"/>
<path d="M5916 7078 c-13 -18 -16 -56 -16 -204 0 -163 2 -183 18 -197 16 -15
48 -17 234 -17 l215 0 0 -991 c0 -953 1 -992 18 -1005 15 -11 73 -14 261 -14
227 0 244 1 256 19 11 15 13 199 13 992 -1 536 1 980 3 987 3 9 55 12 216 12
159 0 217 3 230 13 16 12 18 33 18 207 1 176 -1 194 -18 207 -14 10 -150 13
-725 13 l-708 0 -15 -22z"/>
<path d="M7506 7084 c-14 -14 -16 -137 -16 -1209 0 -1072 2 -1195 16 -1209 13
-14 51 -16 258 -16 213 0 245 2 257 16 11 14 14 112 13 526 l0 508 175 -2 174
-3 1 -506 c1 -413 4 -509 15 -522 12 -15 43 -17 257 -17 207 0 245 2 258 16
14 14 16 138 16 1214 0 1175 0 1200 -19 1210 -12 6 -113 10 -259 10 -211 0
-241 -2 -253 -17 -11 -13 -14 -101 -16 -467 -1 -248 -2 -456 -2 -463 -1 -9
-44 -12 -173 -10 l-173 2 -1 462 c0 364 -3 465 -13 477 -20 24 -492 24 -515 0z"/>
<path d="M9587 7088 c-12 -9 -32 -90 -72 -283 -30 -148 -58 -283 -61 -300 -2
-16 -7 -37 -9 -45 -2 -8 -6 -26 -9 -40 -13 -69 -27 -137 -31 -157 -12 -54 -16
-72 -31 -146 -8 -42 -18 -90 -20 -105 -3 -15 -30 -146 -60 -292 -30 -146 -57
-278 -60 -295 -3 -16 -23 -115 -45 -220 -22 -104 -42 -201 -44 -215 -2 -14
-16 -80 -30 -147 -30 -147 -31 -169 -6 -183 12 -6 112 -10 254 -10 263 0 260
-1 271 75 9 55 56 308 71 375 l12 55 182 2 c130 1 184 -2 187 -10 2 -7 20
-104 39 -217 19 -113 37 -216 40 -229 10 -51 9 -51 281 -51 l254 0 16 25 c14
21 14 32 5 72 -6 27 -14 59 -16 73 -3 14 -7 36 -10 50 -3 14 -7 34 -9 45 -2
11 -30 146 -61 300 -31 154 -59 289 -61 300 -2 11 -22 110 -45 220 -22 110
-43 211 -45 225 -3 14 -18 88 -34 165 -16 77 -31 151 -33 165 -3 14 -33 162
-67 330 -80 390 -88 430 -89 442 -1 4 -8 14 -17 22 -13 14 -57 16 -323 16
-230 0 -311 -3 -324 -12z m328 -853 c3 -22 8 -55 11 -74 2 -19 6 -46 9 -60 9
-53 46 -287 51 -321 3 -19 7 -45 9 -56 2 -12 6 -47 10 -77 l7 -55 -111 1 -112
0 7 41 c3 22 7 43 9 46 1 3 6 32 10 65 3 32 8 62 11 66 2 4 6 27 9 50 3 24 14
96 25 159 11 63 22 133 26 155 3 22 8 47 9 55 2 8 4 24 4 34 1 29 8 16 16 -29z"/>
<path d="M10537 7082 c-15 -16 -17 -45 -17 -203 0 -101 5 -191 10 -199 8 -12
49 -16 232 -20 l223 -5 0 -986 c0 -818 2 -989 14 -1003 12 -14 43 -16 261 -16
214 0 249 2 261 16 10 13 13 202 13 1005 l0 989 217 0 c184 0 220 2 233 16 13
13 16 46 16 204 0 158 -3 191 -16 204 -14 14 -93 16 -723 16 -673 0 -709 -1
-724 -18z"/>
</g>
</svg>
